<svg xmlns="http://www.w3.org/2000/svg" version="1.1" xmlns:xlink="http://www.w3.org/1999/xlink" xmlns:svgjs="http://svgjs.com/svgjs" width="1200" height="560" preserveAspectRatio="none" viewBox="0 0 1200 560"><g mask="url(&quot;#SvgjsMask1011&quot;)" fill="none"><rect width="1200" height="560" x="0" y="0" fill="#0e2a47"></rect><g mask="url(&quot;#SvgjsMask1012&quot;)"><path d="M337.5 312.5L362.5 337.5M287.5 312.5L312.5 337.5L337.5 337.5M362.5 312.5L387.5 312.5L412.5 312.5M237.5 312.5L262.5 337.5M-12.5 287.5L12.5 287.5L37.5 287.5L62.5 287.5L87.5 312.5L112.5 312.5L137.5 312.5L162.5 312.5L187.5 312.5L212.5 312.5L237.5 312.5L262.5 312.5L287.5 312.5L312.5 312.5L337.5 312.5L362.5 312.5L387.5 337.5" stroke="#3a7cc3" stroke-width="4.17"></path><path d="M381.25 337.5 a6.25 6.25 0 1 0 12.5 0 a6.25 6.25 0 1 0 -12.5 0zM356.25 337.5 a6.25 6.25 0 1 0 12.5 0 a6.25 6.25 0 1 0 -12.5 0zM331.25 337.5 a6.25 6.25 0 1 0 12.5 0 a6.25 6.25 0 1 0 -12.5 0zM406.25 312.5 a6.25 6.25 0 1 0 12.5 0 a6.25 6.25 0 1 0 -12.5 0zM256.25 337.5 a6.25 6.25 0 1 0 12.5 0 a6.25 6.25 0 1 0 -12.5 0z" fill="#3a7cc3"></path><path d="M137.5 262.5L162.5 287.5L187.5 287.5M262.5 212.5L287.5 237.5M237.5 212.5L262.5 237.5M-12.5 262.5L12.5 262.5L37.5 262.5L62.5 262.5L87.5 262.5L112.5 262.5L137.5 262.5L162.5 262.5L187.5 237.5L212.5 237.5L237.5 212.5L262.5 212.5L287.5 212.5" stroke="#3a7cc3" stroke-width="4.17"></path><path d="M281.25 212.5 a6.25 6.25 0 1 0 12.5 0 a6.25 6.25 0 1 0 -12.5 0zM181.25 287.5 a6.25 6.25 0 1 0 12.5 0 a6.25 6.25 0 1 0 -12.5 0zM281.25 237.5 a6.25 6.25 0 1 0 12.5 0 a6.25 6.25 0 1 0 -12.5 0zM256.25 237.5 a6.25 6.25 0 1 0 12.5 0 a6.25 6.25 0 1 0 -12.5 0z" fill="#3a7cc3"></path><path d="M-12.5 312.5L12.5 312.5L37.5 312.5L62.5 312.5L87.5 337.5L112.5 337.5L137.5 337.5L162.5 337.5L187.5 337.5L212.5 337.5" stroke="#dd1133" stroke-width="4.17"></path><path d="M206.25 337.5 a6.25 6.25 0 1 0 12.5 0 a6.25 6.25 0 1 0 -12.5 0z" fill="#dd1133"></path><path d="M-12.5 237.5L12.5 237.5L37.5 237.5L62.5 237.5L87.5 237.5L112.5 237.5L137.5 237.5L162.5 237.5L187.5 212.5L212.5 212.5L237.5 187.5L262.5 187.5L287.5 187.5L312.5 187.5" stroke="#dd1133" stroke-width="4.17"></path><path d="M306.25 187.5 a6.25 6.25 0 1 0 12.5 0 a6.25 6.25 0 1 0 -12.5 0z" fill="#dd1133"></path><path d="M-12.5 337.5L12.5 337.5L37.5 337.5" stroke="#3a7cc3" stroke-width="4.17"></path><path d="M31.25 337.5 a6.25 6.25 0 1 0 12.5 0 a6.25 6.25 0 1 0 -12.5 0z" fill="#3a7cc3"></path><path d="M187.5 187.5L212.5 162.5L237.5 137.5L262.5 137.5M287.5 162.5L312.5 137.5L337.5 137.5M87.5 212.5L112.5 187.5M62.5 212.5L87.5 187.5L112.5 162.5L137.5 162.5L162.5 162.5M-12.5 212.5L12.5 212.5L37.5 212.5L62.5 212.5L87.5 212.5L112.5 212.5L137.5 212.5L162.5 212.5L187.5 187.5L212.5 187.5L237.5 162.5L262.5 162.5L287.5 162.5L312.5 162.5L337.5 162.5L362.5 187.5L387.5 187.5" stroke="#3a7cc3" stroke-width="4.17"></path><path d="M381.25 187.5 a6.25 6.25 0 1 0 12.5 0 a6.25 6.25 0 1 0 -12.5 0zM256.25 137.5 a6.25 6.25 0 1 0 12.5 0 a6.25 6.25 0 1 0 -12.5 0zM331.25 137.5 a6.25 6.25 0 1 0 12.5 0 a6.25 6.25 0 1 0 -12.5 0zM106.25 187.5 a6.25 6.25 0 1 0 12.5 0 a6.25 6.25 0 1 0 -12.5 0zM156.25 162.5 a6.25 6.25 0 1 0 12.5 0 a6.25 6.25 0 1 0 -12.5 0z" fill="#3a7cc3"></path><path d="M-12.5 362.5L12.5 362.5L37.5 362.5L62.5 362.5L87.5 362.5L112.5 362.5L137.5 362.5L162.5 362.5" stroke="#3a7cc3" stroke-width="4.17"></path><path d="M156.25 362.5 a6.25 6.25 0 1 0 12.5 0 a6.25 6.25 0 1 0 -12.5 0z" fill="#3a7cc3"></path><path d="M37.5 187.5L62.5 187.5M12.5 187.5L37.5 162.5L62.5 137.5M-12.5 187.5L12.5 187.5L37.5 187.5L62.5 162.5" stroke="#3a7cc3" stroke-width="4.17"></path><path d="M56.25 162.5 a6.25 6.25 0 1 0 12.5 0 a6.25 6.25 0 1 0 -12.5 0zM56.25 187.5 a6.25 6.25 0 1 0 12.5 0 a6.25 6.25 0 1 0 -12.5 0zM56.25 137.5 a6.25 6.25 0 1 0 12.5 0 a6.25 6.25 0 1 0 -12.5 0z" fill="#3a7cc3"></path><path d="M37.5 387.5L62.5 412.5L87.5 412.5L112.5 412.5M12.5 387.5L37.5 412.5L62.5 437.5L87.5 437.5L112.5 437.5M137.5 387.5L162.5 412.5L187.5 412.5L212.5 412.5L237.5 387.5M-12.5 387.5L12.5 387.5L37.5 387.5L62.5 387.5L87.5 387.5L112.5 387.5L137.5 387.5L162.5 387.5" stroke="#3a7cc3" stroke-width="4.17"></path><path d="M156.25 387.5 a6.25 6.25 0 1 0 12.5 0 a6.25 6.25 0 1 0 -12.5 0zM106.25 412.5 a6.25 6.25 0 1 0 12.5 0 a6.25 6.25 0 1 0 -12.5 0zM106.25 437.5 a6.25 6.25 0 1 0 12.5 0 a6.25 6.25 0 1 0 -12.5 0zM231.25 387.5 a6.25 6.25 0 1 0 12.5 0 a6.25 6.25 0 1 0 -12.5 0z" fill="#3a7cc3"></path></g></g><defs><mask id="SvgjsMask1011"><rect width="1200" height="560" fill="#ffffff"></rect></mask><mask id="SvgjsMask1012"><rect width="1200" height="560" fill="white"></rect><path d="M384.37 337.5 a3.13 3.13 0 1 0 6.26 0 a3.13 3.13 0 1 0 -6.26 0zM359.37 337.5 a3.13 3.13 0 1 0 6.26 0 a3.13 3.13 0 1 0 -6.26 0zM334.37 337.5 a3.13 3.13 0 1 0 6.26 0 a3.13 3.13 0 1 0 -6.26 0zM409.37 312.5 a3.13 3.13 0 1 0 6.26 0 a3.13 3.13 0 1 0 -6.26 0zM259.37 337.5 a3.13 3.13 0 1 0 6.26 0 a3.13 3.13 0 1 0 -6.26 0z" fill="black"></path><path d="M284.37 212.5 a3.13 3.13 0 1 0 6.26 0 a3.13 3.13 0 1 0 -6.26 0zM184.37 287.5 a3.13 3.13 0 1 0 6.26 0 a3.13 3.13 0 1 0 -6.26 0zM284.37 237.5 a3.13 3.13 0 1 0 6.26 0 a3.13 3.13 0 1 0 -6.26 0zM259.37 237.5 a3.13 3.13 0 1 0 6.26 0 a3.13 3.13 0 1 0 -6.26 0z" fill="black"></path><path d="M209.37 337.5 a3.13 3.13 0 1 0 6.26 0 a3.13 3.13 0 1 0 -6.26 0z" fill="black"></path><path d="M309.37 187.5 a3.13 3.13 0 1 0 6.26 0 a3.13 3.13 0 1 0 -6.26 0z" fill="black"></path><path d="M34.37 337.5 a3.13 3.13 0 1 0 6.26 0 a3.13 3.13 0 1 0 -6.26 0z" fill="black"></path><path d="M384.37 187.5 a3.13 3.13 0 1 0 6.26 0 a3.13 3.13 0 1 0 -6.26 0zM259.37 137.5 a3.13 3.13 0 1 0 6.26 0 a3.13 3.13 0 1 0 -6.26 0zM334.37 137.5 a3.13 3.13 0 1 0 6.26 0 a3.13 3.13 0 1 0 -6.26 0zM109.37 187.5 a3.13 3.13 0 1 0 6.26 0 a3.13 3.13 0 1 0 -6.26 0zM159.37 162.5 a3.13 3.13 0 1 0 6.26 0 a3.13 3.13 0 1 0 -6.26 0z" fill="black"></path><path d="M159.37 362.5 a3.13 3.13 0 1 0 6.26 0 a3.13 3.13 0 1 0 -6.26 0z" fill="black"></path><path d="M59.37 162.5 a3.13 3.13 0 1 0 6.26 0 a3.13 3.13 0 1 0 -6.26 0zM59.37 187.5 a3.13 3.13 0 1 0 6.26 0 a3.13 3.13 0 1 0 -6.26 0zM59.37 137.5 a3.13 3.13 0 1 0 6.26 0 a3.13 3.13 0 1 0 -6.26 0z" fill="black"></path><path d="M159.37 387.5 a3.13 3.13 0 1 0 6.26 0 a3.13 3.13 0 1 0 -6.26 0zM109.37 412.5 a3.13 3.13 0 1 0 6.26 0 a3.13 3.13 0 1 0 -6.26 0zM109.37 437.5 a3.13 3.13 0 1 0 6.26 0 a3.13 3.13 0 1 0 -6.26 0zM234.37 387.5 a3.13 3.13 0 1 0 6.26 0 a3.13 3.13 0 1 0 -6.26 0z" fill="black"></path></mask></defs></svg>